<svg xmlns="http://www.w3.org/2000/svg" viewBox="0 0 100 100" fill="none" shape-rendering="auto" aria-hidden="true"><!-- Generated by DiceBear (https://www.dicebear.com) --><metadata xmlns:rdf="http://www.w3.org/1999/02/22-rdf-syntax-ns#" xmlns:xsi="http://www.w3.org/2001/XMLSchema-instance" xmlns:dc="http://purl.org/dc/elements/1.1/" xmlns:dcterms="http://purl.org/dc/terms/"><rdf:RDF><rdf:Description><dc:title>Constellation</dc:title><dc:creator>DiceBear</dc:creator><dc:source xsi:type="dcterms:URI">https://www.dicebear.com</dc:source><dcterms:license xsi:type="dcterms:URI">https://creativecommons.org/publicdomain/zero/1.0/</dcterms:license><dc:rights>“Constellation” (https://www.dicebear.com) by “DiceBear”, licensed under “CC0 1.0” (https://creativecommons.org/publicdomain/zero/1.0/)</dc:rights></rdf:Description></rdf:RDF></metadata><defs><g id="star-small-772349a7"><g class="dbca-tw-small"><circle cx="5" cy="5" r=".8" fill="#fff" fill-opacity=".6"/></g></g><g id="star-faint-772349a7"><circle cx="5" cy="5" r=".6" fill="#fff" fill-opacity=".4"/></g><g id="star-medium-772349a7"><g class="dbca-tw-medium"><circle cx="5" cy="5" r="1" fill="#fff" fill-opacity=".7"/></g></g><g id="constellation-delphinus-772349a7"><path d="m63.2 75.8-8.4-25.7m0 0-4-10.3m0 0L37.6 38m0 0 6 8.3m0 0 11.2 3.8" stroke="#e9dab2" stroke-opacity=".4" stroke-width=".8" stroke-linecap="round"/><circle cx="63.2" cy="75.8" r="2" fill="#e9dab2"/><circle cx="54.8" cy="50.1" r="2.4" fill="#e9dab2"/><circle cx="54.8" cy="50.1" r="4" stroke="#e9dab2" stroke-opacity=".35" stroke-width=".7"/><circle cx="50.8" cy="39.8" r="2.1" fill="#e9dab2"/><circle cx="43.6" cy="46.3" r="1.9" fill="#e9dab2"/><circle cx="37.6" cy="38" r="1.9" fill="#e9dab2"/></g><g id="animation-none-772349a7"></g><clipPath id="clip-772349a7"><rect width="100" height="100" rx="0" ry="0"/></clipPath></defs><g clip-path="url(#clip-772349a7)"><rect width="100" height="100" fill="#1f2040"/><use transform="translate(7.5 7.5) translate(1.52033, 8.21975)" href="#star-small-772349a7"/><use transform="translate(32.5 7.5) translate(-6.22435, -4.40256)" href="#star-small-772349a7"/><use transform="translate(57.5 7.5) translate(7.66293, -11.96543)" href="#star-faint-772349a7"/><use transform="translate(7.5 32.5) translate(-6.43961, -4.20433)" href="#star-medium-772349a7"/><use transform="translate(32.5 32.5) translate(-1.89424, -4.18098)" href="#star-small-772349a7"/><use transform="translate(57.5 32.5) translate(0.81064, 8.00442)" href="#star-faint-772349a7"/><use transform="translate(82.5 32.5) translate(1.66418, 10.95985)" href="#star-faint-772349a7"/><use transform="translate(7.5 57.5) translate(8.21751, -2.52868)" href="#star-medium-772349a7"/><use transform="translate(32.5 57.5) translate(-4.43462, -10.06763)" href="#star-faint-772349a7"/><use transform="translate(57.5 57.5) translate(5.73216, -1.71103)" href="#star-faint-772349a7"/><use transform="translate(82.5 57.5) translate(1.2318, 6.64128)" href="#star-faint-772349a7"/><use transform="translate(7.5 82.5) translate(3.71244, -3.6922)" href="#star-small-772349a7"/><use transform="translate(32.5 82.5) translate(-1.61582, -6.03588)" href="#star-small-772349a7"/><use transform="translate(57.5 82.5) translate(-4.26615, 9.5129)" href="#star-faint-772349a7"/><use transform="translate(-2.5978, -3.5293) rotate(-115.9215, 50, 50)" href="#constellation-delphinus-772349a7"/><use href="#animation-none-772349a7"/></g></svg>