<svg xmlns="http://www.w3.org/2000/svg" viewBox="0 0 100 100" fill="none" shape-rendering="auto" aria-hidden="true"><!-- Generated by DiceBear (https://www.dicebear.com) --><metadata xmlns:rdf="http://www.w3.org/1999/02/22-rdf-syntax-ns#" xmlns:xsi="http://www.w3.org/2001/XMLSchema-instance" xmlns:dc="http://purl.org/dc/elements/1.1/" xmlns:dcterms="http://purl.org/dc/terms/"><rdf:RDF><rdf:Description><dc:title>Constellation</dc:title><dc:creator>DiceBear</dc:creator><dc:source xsi:type="dcterms:URI">https://www.dicebear.com</dc:source><dcterms:license xsi:type="dcterms:URI">https://creativecommons.org/publicdomain/zero/1.0/</dcterms:license><dc:rights>“Constellation” (https://www.dicebear.com) by “DiceBear”, licensed under “CC0 1.0” (https://creativecommons.org/publicdomain/zero/1.0/)</dc:rights></rdf:Description></rdf:RDF></metadata><defs><g id="star-small-3fc7aa22"><g class="dbca-tw-small"><circle cx="5" cy="5" r=".8" fill="#fff" fill-opacity=".6"/></g></g><g id="star-faint-3fc7aa22"><circle cx="5" cy="5" r=".6" fill="#fff" fill-opacity=".4"/></g><g id="star-medium-3fc7aa22"><g class="dbca-tw-medium"><circle cx="5" cy="5" r="1" fill="#fff" fill-opacity=".7"/></g></g><g id="constellation-camelopardalis-3fc7aa22"><path d="m62.1 69.1-8.9-6.7m0 0-13.9-8.7m22.8 15.4-8.5-26.5m0 0L39.3 53.7m14.3-11.1L41.8 22.2" stroke="#c1e0f0" stroke-opacity=".4" stroke-width=".8" stroke-linecap="round"/><circle cx="62.1" cy="69.1" r="2.4" fill="#c1e0f0"/><circle cx="62.1" cy="69.1" r="4" stroke="#c1e0f0" stroke-opacity=".35" stroke-width=".7"/><circle cx="53.6" cy="42.6" r="2" fill="#c1e0f0"/><circle cx="53.2" cy="62.4" r="1.9" fill="#c1e0f0"/><circle cx="39.3" cy="53.7" r="2.1" fill="#c1e0f0"/><circle cx="41.8" cy="22.2" r="1.9" fill="#c1e0f0"/></g><linearGradient id="dicebearConstellation-long" gradientUnits="userSpaceOnUse" x1="78" y1="12" x2="36" y2="34"><stop offset="0" stop-color="#fff" stop-opacity="0"/><stop offset="1" stop-color="#fff" stop-opacity=".7"/></linearGradient><g id="comet-long-3fc7aa22"><g class="dbca-comet"><path d="M78 12 35.3 32.7l1.4 2.6Z" fill="url(#dicebearConstellation-long)"/><circle cx="36" cy="34" r="1.6" fill="#fff" fill-opacity=".9"/></g></g><g id="animation-none-3fc7aa22"></g><clipPath id="clip-3fc7aa22"><rect width="100" height="100" rx="0" ry="0"/></clipPath></defs><g clip-path="url(#clip-3fc7aa22)"><rect width="100" height="100" fill="#131e37"/><use transform="translate(7.5 7.5) translate(11.3119, -0.29034)" href="#star-small-3fc7aa22"/><use transform="translate(57.5 7.5) translate(-2.75989, 4.59592)" href="#star-faint-3fc7aa22"/><use transform="translate(82.5 7.5) translate(-3.6458, 5.27322)" href="#star-faint-3fc7aa22"/><use transform="translate(7.5 32.5) translate(10.55404, 4.28931)" href="#star-medium-3fc7aa22"/><use transform="translate(57.5 32.5) translate(-4.7114, 9.59958)" href="#star-faint-3fc7aa22"/><use transform="translate(82.5 32.5) translate(-9.08711, 5.35254)" href="#star-small-3fc7aa22"/><use transform="translate(7.5 57.5) translate(10.30043, -10.50784)" href="#star-small-3fc7aa22"/><use transform="translate(57.5 57.5) translate(-4.27162, 0.74356)" href="#star-small-3fc7aa22"/><use transform="translate(82.5 57.5) translate(-5.93938, -4.94398)" href="#star-medium-3fc7aa22"/><use transform="translate(7.5 82.5) translate(0.3542, 9.26984)" href="#star-small-3fc7aa22"/><use transform="translate(32.5 82.5) translate(-8.93768, 9.51533)" href="#star-faint-3fc7aa22"/><use transform="translate(57.5 82.5) translate(1.22348, 5.49029)" href="#star-small-3fc7aa22"/><use transform="translate(0.3247, -5.5957) rotate(86.2866, 50, 50)" href="#constellation-camelopardalis-3fc7aa22"/><use transform="translate(6.4807, -0.9581) rotate(2.3326, 50, 50)" href="#comet-long-3fc7aa22"/><use href="#animation-none-3fc7aa22"/></g></svg>