<svg xmlns="http://www.w3.org/2000/svg" viewBox="0 0 100 100" fill="none" shape-rendering="auto" aria-hidden="true"><!-- Generated by DiceBear (https://www.dicebear.com) --><metadata xmlns:rdf="http://www.w3.org/1999/02/22-rdf-syntax-ns#" xmlns:xsi="http://www.w3.org/2001/XMLSchema-instance" xmlns:dc="http://purl.org/dc/elements/1.1/" xmlns:dcterms="http://purl.org/dc/terms/"><rdf:RDF><rdf:Description><dc:title>Constellation</dc:title><dc:creator>DiceBear</dc:creator><dc:source xsi:type="dcterms:URI">https://www.dicebear.com</dc:source><dcterms:license xsi:type="dcterms:URI">https://creativecommons.org/publicdomain/zero/1.0/</dcterms:license><dc:rights>“Constellation” (https://www.dicebear.com) by “DiceBear”, licensed under “CC0 1.0” (https://creativecommons.org/publicdomain/zero/1.0/)</dc:rights></rdf:Description></rdf:RDF></metadata><defs><g id="star-medium-40c7abb5"><g class="dbca-tw-medium"><circle cx="5" cy="5" r="1" fill="#fff" fill-opacity=".7"/></g></g><g id="star-small-40c7abb5"><g class="dbca-tw-small"><circle cx="5" cy="5" r=".8" fill="#fff" fill-opacity=".6"/></g></g><g id="star-faint-40c7abb5"><circle cx="5" cy="5" r=".6" fill="#fff" fill-opacity=".4"/></g><g id="constellation-auriga-40c7abb5"><path d="m31.1 53.3 2.1-22.2m0 0 21.7-2.2m0 0L63 42.6m0 0 4.8 22.5M50.1 79l17.7-13.9M50.1 79l-19-25.7" stroke="#f1d7d2" stroke-opacity=".4" stroke-width=".8" stroke-linecap="round"/><circle cx="67.8" cy="65.1" r="1.4" fill="#f1d7d2"/><circle cx="63" cy="42.6" r="1.2" fill="#f1d7d2"/><circle cx="54.9" cy="28.9" r="2.4" fill="#f1d7d2"/><circle cx="54.9" cy="28.9" r="4" stroke="#f1d7d2" stroke-opacity=".35" stroke-width=".7"/><circle cx="50.1" cy="79" r="1.7" fill="#f1d7d2"/><circle cx="33.2" cy="31.1" r="1.6" fill="#f1d7d2"/><circle cx="31.1" cy="53.3" r="1.5" fill="#f1d7d2"/></g><g id="animation-none-40c7abb5"></g><clipPath id="clip-40c7abb5"><rect width="100" height="100" rx="0" ry="0"/></clipPath></defs><g clip-path="url(#clip-40c7abb5)"><rect width="100" height="100" fill="#27193c"/><use transform="translate(7.5 7.5) translate(2.44441, -2.24584)" href="#star-medium-40c7abb5"/><use transform="translate(32.5 7.5) translate(11.84425, -2.69442)" href="#star-small-40c7abb5"/><use transform="translate(57.5 7.5) translate(-2.09426, 6.19963)" href="#star-faint-40c7abb5"/><use transform="translate(82.5 7.5) translate(-3.88153, -5.8036)" href="#star-small-40c7abb5"/><use transform="translate(7.5 32.5) translate(-5.60264, -0.5677)" href="#star-faint-40c7abb5"/><use transform="translate(82.5 32.5) translate(7.79055, -11.81533)" href="#star-faint-40c7abb5"/><use transform="translate(32.5 57.5) translate(10.06627, 0.72821)" href="#star-medium-40c7abb5"/><use transform="translate(57.5 57.5) translate(-7.81365, -9.45951)" href="#star-small-40c7abb5"/><use transform="translate(82.5 57.5) translate(-9.19108, -3.17377)" href="#star-faint-40c7abb5"/><use transform="translate(32.5 82.5) translate(11.64923, -7.34786)" href="#star-faint-40c7abb5"/><use transform="translate(57.5 82.5) translate(-3.61334, 9.76768)" href="#star-faint-40c7abb5"/><use transform="translate(82.5 82.5) translate(6.68569, 3.54257)" href="#star-medium-40c7abb5"/><use transform="translate(-2.7477, -5.6835) rotate(-3.1884, 50, 50)" href="#constellation-auriga-40c7abb5"/><use href="#animation-none-40c7abb5"/></g></svg>