<svg xmlns="http://www.w3.org/2000/svg" viewBox="0 0 100 100" fill="none" shape-rendering="auto" aria-hidden="true"><!-- Generated by DiceBear (https://www.dicebear.com) --><metadata xmlns:rdf="http://www.w3.org/1999/02/22-rdf-syntax-ns#" xmlns:xsi="http://www.w3.org/2001/XMLSchema-instance" xmlns:dc="http://purl.org/dc/elements/1.1/" xmlns:dcterms="http://purl.org/dc/terms/"><rdf:RDF><rdf:Description><dc:title>Constellation</dc:title><dc:creator>DiceBear</dc:creator><dc:source xsi:type="dcterms:URI">https://www.dicebear.com</dc:source><dcterms:license xsi:type="dcterms:URI">https://creativecommons.org/publicdomain/zero/1.0/</dcterms:license><dc:rights>“Constellation” (https://www.dicebear.com) by “DiceBear”, licensed under “CC0 1.0” (https://creativecommons.org/publicdomain/zero/1.0/)</dc:rights></rdf:Description></rdf:RDF></metadata><defs><g id="star-small-ff46ffec"><g class="dbca-tw-small"><circle cx="5" cy="5" r=".8" fill="#fff" fill-opacity=".6"/></g></g><g id="star-faint-ff46ffec"><circle cx="5" cy="5" r=".6" fill="#fff" fill-opacity=".4"/></g><g id="star-medium-ff46ffec"><g class="dbca-tw-medium"><circle cx="5" cy="5" r="1" fill="#fff" fill-opacity=".7"/></g></g><g id="constellation-grus-ff46ffec"><path d="m35.1 45.8 17.6-.7m0 0 9 9.4m0 0-15.1-.7m0 0-12.7-3.4m0 0 1.2-4.6m11.5 8-6.8 15.6m6.8-15.6-2.1 11.5m17.2-10.8 2.7-19.1m0 0 6.9-5.1" stroke="#ece8dd" stroke-opacity=".4" stroke-width=".8" stroke-linecap="round"/><circle cx="71.3" cy="30.3" r="1.8" fill="#ece8dd"/><circle cx="64.4" cy="35.4" r="1.4" fill="#ece8dd"/><circle cx="61.7" cy="54.5" r="2.4" fill="#ece8dd"/><circle cx="61.7" cy="54.5" r="4" stroke="#ece8dd" stroke-opacity=".35" stroke-width=".7"/><circle cx="52.7" cy="45.1" r="1.5" fill="#ece8dd"/><circle cx="46.6" cy="53.8" r="2" fill="#ece8dd"/><circle cx="44.5" cy="65.3" r="1.7" fill="#ece8dd"/><circle cx="39.8" cy="69.4" r="1.5" fill="#ece8dd"/><circle cx="35.1" cy="45.8" r="1.5" fill="#ece8dd"/><circle cx="33.9" cy="50.4" r="1.6" fill="#ece8dd"/></g><g id="animation-none-ff46ffec"></g><clipPath id="clip-ff46ffec"><rect width="100" height="100" rx="0" ry="0"/></clipPath></defs><g clip-path="url(#clip-ff46ffec)"><rect width="100" height="100" fill="#0d1e2f"/><use transform="translate(32.5 7.5) translate(10.42678, 9.84869)" href="#star-small-ff46ffec"/><use transform="translate(57.5 7.5) translate(-9.81275, 5.79929)" href="#star-faint-ff46ffec"/><use transform="translate(82.5 7.5) translate(3.24052, -5.21765)" href="#star-faint-ff46ffec"/><use transform="translate(7.5 32.5) translate(-11.07876, -1.64099)" href="#star-small-ff46ffec"/><use transform="translate(32.5 32.5) translate(11.78107, 4.49186)" href="#star-small-ff46ffec"/><use transform="translate(82.5 32.5) translate(11.493, 11.74987)" href="#star-medium-ff46ffec"/><use transform="translate(7.5 57.5) translate(-8.21663, 1.72041)" href="#star-small-ff46ffec"/><use transform="translate(32.5 57.5) translate(6.53754, 3.12441)" href="#star-faint-ff46ffec"/><use transform="translate(57.5 57.5) translate(9.28653, -9.91147)" href="#star-medium-ff46ffec"/><use transform="translate(82.5 57.5) translate(-2.12511, -3.14976)" href="#star-small-ff46ffec"/><use transform="translate(7.5 82.5) translate(-2.14726, -11.54973)" href="#star-faint-ff46ffec"/><use transform="translate(32.5 82.5) translate(-2.04255, -8.44189)" href="#star-faint-ff46ffec"/><use transform="translate(57.5 82.5) translate(9.01514, 9.29748)" href="#star-small-ff46ffec"/><use transform="translate(5.4498, 1.0502) rotate(148.9388, 50, 50)" href="#constellation-grus-ff46ffec"/><use href="#animation-none-ff46ffec"/></g></svg>