<svg xmlns="http://www.w3.org/2000/svg" viewBox="0 0 100 100" fill="none" shape-rendering="auto" aria-hidden="true"><!-- Generated by DiceBear (https://www.dicebear.com) --><metadata xmlns:rdf="http://www.w3.org/1999/02/22-rdf-syntax-ns#" xmlns:xsi="http://www.w3.org/2001/XMLSchema-instance" xmlns:dc="http://purl.org/dc/elements/1.1/" xmlns:dcterms="http://purl.org/dc/terms/"><rdf:RDF><rdf:Description><dc:title>Constellation</dc:title><dc:creator>DiceBear</dc:creator><dc:source xsi:type="dcterms:URI">https://www.dicebear.com</dc:source><dcterms:license xsi:type="dcterms:URI">https://creativecommons.org/publicdomain/zero/1.0/</dcterms:license><dc:rights>“Constellation” (https://www.dicebear.com) by “DiceBear”, licensed under “CC0 1.0” (https://creativecommons.org/publicdomain/zero/1.0/)</dc:rights></rdf:Description></rdf:RDF></metadata><defs><g id="star-small-3865eff8"><g class="dbca-tw-small"><circle cx="5" cy="5" r=".8" fill="#fff" fill-opacity=".6"/></g></g><g id="star-medium-3865eff8"><g class="dbca-tw-medium"><circle cx="5" cy="5" r="1" fill="#fff" fill-opacity=".7"/></g></g><g id="star-faint-3865eff8"><circle cx="5" cy="5" r=".6" fill="#fff" fill-opacity=".4"/></g><g id="constellation-bigDipper-3865eff8"><path d="m68.7 36.7 3.7 10.2m0 0-13.6 8.2m0 0-6.5-6.2m0 0 16.4-12.2M52.3 48.9l-10.6 1.7m0 0-8.6.7m0 0-10.2 9.1" stroke="#e7ecf0" stroke-opacity=".4" stroke-width=".8" stroke-linecap="round"/><circle cx="72.4" cy="46.9" r="2" fill="#e7ecf0"/><circle cx="68.7" cy="36.7" r="2.1" fill="#e7ecf0"/><circle cx="58.8" cy="55.1" r="1.9" fill="#e7ecf0"/><circle cx="52.3" cy="48.9" r="1.7" fill="#e7ecf0"/><circle cx="41.7" cy="50.6" r="2.4" fill="#e7ecf0"/><circle cx="41.7" cy="50.6" r="4" stroke="#e7ecf0" stroke-opacity=".35" stroke-width=".7"/><circle cx="33.1" cy="51.3" r="2" fill="#e7ecf0"/><circle cx="22.9" cy="60.4" r="2.1" fill="#e7ecf0"/></g><g id="animation-none-3865eff8"></g><clipPath id="clip-3865eff8"><rect width="100" height="100" rx="0" ry="0"/></clipPath></defs><g clip-path="url(#clip-3865eff8)"><rect width="100" height="100" fill="#032933"/><use transform="translate(7.5 7.5) translate(2.92936, -3.98262)" href="#star-small-3865eff8"/><use transform="translate(32.5 7.5) translate(4.24369, 7.39449)" href="#star-small-3865eff8"/><use transform="translate(57.5 7.5) translate(5.01077, -0.90244)" href="#star-medium-3865eff8"/><use transform="translate(82.5 7.5) translate(-9.89428, -8.16856)" href="#star-medium-3865eff8"/><use transform="translate(57.5 32.5) translate(3.69474, -10.64084)" href="#star-faint-3865eff8"/><use transform="translate(82.5 32.5) translate(11.70025, 6.35937)" href="#star-small-3865eff8"/><use transform="translate(32.5 57.5) translate(-4.65284, 3.5)" href="#star-medium-3865eff8"/><use transform="translate(82.5 57.5) translate(8.25783, 2.94248)" href="#star-medium-3865eff8"/><use transform="translate(7.5 82.5) translate(9.20143, 3.11199)" href="#star-small-3865eff8"/><use transform="translate(32.5 82.5) translate(4.21859, 10.45138)" href="#star-small-3865eff8"/><use transform="translate(57.5 82.5) translate(6.19411, 2.89072)" href="#star-medium-3865eff8"/><use transform="translate(82.5 82.5) translate(7.0517, 5.29841)" href="#star-small-3865eff8"/><use transform="translate(0.7542, -1.5512) rotate(-137.5395, 50, 50)" href="#constellation-bigDipper-3865eff8"/><use href="#animation-none-3865eff8"/></g></svg>