<svg xmlns="http://www.w3.org/2000/svg" viewBox="0 0 100 100" fill="none" shape-rendering="auto" aria-hidden="true"><!-- Generated by DiceBear (https://www.dicebear.com) --><metadata xmlns:rdf="http://www.w3.org/1999/02/22-rdf-syntax-ns#" xmlns:xsi="http://www.w3.org/2001/XMLSchema-instance" xmlns:dc="http://purl.org/dc/elements/1.1/" xmlns:dcterms="http://purl.org/dc/terms/"><rdf:RDF><rdf:Description><dc:title>Constellation</dc:title><dc:creator>DiceBear</dc:creator><dc:source xsi:type="dcterms:URI">https://www.dicebear.com</dc:source><dcterms:license xsi:type="dcterms:URI">https://creativecommons.org/publicdomain/zero/1.0/</dcterms:license><dc:rights>“Constellation” (https://www.dicebear.com) by “DiceBear”, licensed under “CC0 1.0” (https://creativecommons.org/publicdomain/zero/1.0/)</dc:rights></rdf:Description></rdf:RDF></metadata><defs><g id="star-medium-39473a8e"><g class="dbca-tw-medium"><circle cx="5" cy="5" r="1" fill="#fff" fill-opacity=".7"/></g></g><g id="star-small-39473a8e"><g class="dbca-tw-small"><circle cx="5" cy="5" r=".8" fill="#fff" fill-opacity=".6"/></g></g><g id="star-faint-39473a8e"><circle cx="5" cy="5" r=".6" fill="#fff" fill-opacity=".4"/></g><g id="constellation-bootes-39473a8e"><path d="m45.1 73.7 11.4-10.4m0 0L44.1 48.8m0 0L32.4 36.4m0 0 6.2-13.1m0 0 10.8 4.6m0 0 .1 14.9m0 0 7 20.5m0 0 9.4 1.2m0 0 2.7 4.8" stroke="#ece8dd" stroke-opacity=".4" stroke-width=".8" stroke-linecap="round"/><circle cx="68.6" cy="69.3" r="1.1" fill="#ece8dd"/><circle cx="65.9" cy="64.5" r="1.4" fill="#ece8dd"/><circle cx="56.5" cy="63.3" r="2.4" fill="#ece8dd"/><circle cx="56.5" cy="63.3" r="4" stroke="#ece8dd" stroke-opacity=".35" stroke-width=".7"/><circle cx="49.5" cy="42.8" r="1.2" fill="#ece8dd"/><circle cx="49.4" cy="27.9" r="1.3" fill="#ece8dd"/><circle cx="45.1" cy="73.7" r="1.1" fill="#ece8dd"/><circle cx="44.1" cy="48.8" r="1.5" fill="#ece8dd"/><circle cx="38.6" cy="23.3" r="1.2" fill="#ece8dd"/><circle cx="32.4" cy="36.4" r="1.2" fill="#ece8dd"/></g><g id="animation-none-39473a8e"></g><clipPath id="clip-39473a8e"><rect width="100" height="100" rx="0" ry="0"/></clipPath></defs><g clip-path="url(#clip-39473a8e)"><rect width="100" height="100" fill="#131e37"/><use transform="translate(7.5 7.5) translate(0.20128, -0.84763)" href="#star-medium-39473a8e"/><use transform="translate(57.5 7.5) translate(7.47155, -7.43646)" href="#star-medium-39473a8e"/><use transform="translate(82.5 7.5) translate(-0.11774, -9.2734)" href="#star-medium-39473a8e"/><use transform="translate(7.5 32.5) translate(2.81479, -7.31674)" href="#star-small-39473a8e"/><use transform="translate(32.5 32.5) translate(1.1003, 7.17421)" href="#star-faint-39473a8e"/><use transform="translate(57.5 32.5) translate(-4.77379, 0.1361)" href="#star-faint-39473a8e"/><use transform="translate(82.5 32.5) translate(5.42445, -1.37193)" href="#star-small-39473a8e"/><use transform="translate(7.5 57.5) translate(1.63, -3.88928)" href="#star-small-39473a8e"/><use transform="translate(32.5 57.5) translate(6.06975, 5.14064)" href="#star-faint-39473a8e"/><use transform="translate(57.5 57.5) translate(-9.66031, 2.73849)" href="#star-faint-39473a8e"/><use transform="translate(82.5 57.5) translate(-4.39231, -8.58602)" href="#star-small-39473a8e"/><use transform="translate(7.5 82.5) translate(-1.72809, 8.15488)" href="#star-faint-39473a8e"/><use transform="translate(32.5 82.5) translate(-11.26191, 3.99519)" href="#star-faint-39473a8e"/><use transform="translate(57.5 82.5) translate(-1.29573, 3.33566)" href="#star-faint-39473a8e"/><use transform="translate(82.5 82.5) translate(8.16576, -8.81082)" href="#star-small-39473a8e"/><use transform="translate(-1.2948, -0.5138) rotate(127.6635, 50, 50)" href="#constellation-bootes-39473a8e"/><use href="#animation-none-39473a8e"/></g></svg>