<svg xmlns="http://www.w3.org/2000/svg" viewBox="0 0 100 100" fill="none" shape-rendering="auto" aria-hidden="true"><!-- Generated by DiceBear (https://www.dicebear.com) --><metadata xmlns:rdf="http://www.w3.org/1999/02/22-rdf-syntax-ns#" xmlns:xsi="http://www.w3.org/2001/XMLSchema-instance" xmlns:dc="http://purl.org/dc/elements/1.1/" xmlns:dcterms="http://purl.org/dc/terms/"><rdf:RDF><rdf:Description><dc:title>Constellation</dc:title><dc:creator>DiceBear</dc:creator><dc:source xsi:type="dcterms:URI">https://www.dicebear.com</dc:source><dcterms:license xsi:type="dcterms:URI">https://creativecommons.org/publicdomain/zero/1.0/</dcterms:license><dc:rights>“Constellation” (https://www.dicebear.com) by “DiceBear”, licensed under “CC0 1.0” (https://creativecommons.org/publicdomain/zero/1.0/)</dc:rights></rdf:Description></rdf:RDF></metadata><defs><g id="star-small-e4f34930"><g class="dbca-tw-small"><circle cx="5" cy="5" r=".8" fill="#fff" fill-opacity=".6"/></g></g><g id="star-medium-e4f34930"><g class="dbca-tw-medium"><circle cx="5" cy="5" r="1" fill="#fff" fill-opacity=".7"/></g></g><g id="star-faint-e4f34930"><circle cx="5" cy="5" r=".6" fill="#fff" fill-opacity=".4"/></g><g id="constellation-corvus-e4f34930"><path d="m37.1 29.1 2.8 1.6m0 0 17.7 5.4m0 0 6.7 26.8m0 0 1.8 11.2m-1.8-11.2L34.9 67m0 0 5-36.3" stroke="#e9dab2" stroke-opacity=".4" stroke-width=".8" stroke-linecap="round"/><circle cx="66.1" cy="74.1" r="1.7" fill="#e9dab2"/><circle cx="64.3" cy="62.9" r="2" fill="#e9dab2"/><circle cx="57.6" cy="36.1" r="2.4" fill="#e9dab2"/><circle cx="57.6" cy="36.1" r="4" stroke="#e9dab2" stroke-opacity=".35" stroke-width=".7"/><circle cx="39.9" cy="30.7" r="2" fill="#e9dab2"/><circle cx="37.1" cy="29.1" r="1.7" fill="#e9dab2"/><circle cx="34.9" cy="67" r="2.1" fill="#e9dab2"/></g><g id="animation-none-e4f34930"></g><clipPath id="clip-e4f34930"><rect width="100" height="100" rx="0" ry="0"/></clipPath></defs><g clip-path="url(#clip-e4f34930)"><rect width="100" height="100" fill="#0d1e2f"/><use transform="translate(7.5 7.5) translate(3.0072, 4.01849)" href="#star-small-e4f34930"/><use transform="translate(32.5 7.5) translate(10.09599, 6.49137)" href="#star-small-e4f34930"/><use transform="translate(57.5 7.5) translate(-6.58081, 5.0915)" href="#star-medium-e4f34930"/><use transform="translate(82.5 7.5) translate(4.30023, -6.28394)" href="#star-faint-e4f34930"/><use transform="translate(7.5 32.5) translate(-8.35712, 2.62511)" href="#star-small-e4f34930"/><use transform="translate(32.5 32.5) translate(-9.8269, -9.25065)" href="#star-medium-e4f34930"/><use transform="translate(57.5 32.5) translate(-5.24537, 0.49888)" href="#star-small-e4f34930"/><use transform="translate(82.5 32.5) translate(2.45851, 11.12331)" href="#star-faint-e4f34930"/><use transform="translate(7.5 57.5) translate(5.65839, -3.97235)" href="#star-small-e4f34930"/><use transform="translate(32.5 57.5) translate(7.30866, 1.3234)" href="#star-faint-e4f34930"/><use transform="translate(57.5 57.5) translate(-10.22542, -11.22763)" href="#star-medium-e4f34930"/><use transform="translate(82.5 57.5) translate(-5.91796, -0.38587)" href="#star-medium-e4f34930"/><use transform="translate(7.5 82.5) translate(-10.17424, 3.66162)" href="#star-medium-e4f34930"/><use transform="translate(32.5 82.5) translate(-6.6833, 9.41941)" href="#star-faint-e4f34930"/><use transform="translate(57.5 82.5) translate(-8.24199, -3.08889)" href="#star-small-e4f34930"/><use transform="translate(-3.7978, -4.0216) rotate(62.6202, 50, 50)" href="#constellation-corvus-e4f34930"/><use href="#animation-none-e4f34930"/></g></svg>